# xmcd CD database file
# Copyright (C) 1996 Ti Kan
#
# Track frame offsets:
# 	150
# 	14232
# 	33705
# 	53145
# 	76292
# 	94207
# 	109815
# 	134387
# 	152020
#
# Disc length: 2421 seconds
#
# Revision: 1
# Processed by: cddbd v1.4b41PL1 Copyright (c) Steve Scherf et al.
# Submitted via: DiscPlay 3.4.1
#
DISCID=76097309
DTITLE=Duke Tumatoe - Dr. Duke
DYEAR=1900
DGENRE=
TTITLE0=Love To Play The Blues
TTITLE1=Green Onions
TTITLE2=Didn't Do It
TTITLE3=Choice Tattoo
TTITLE4=Make Love To You (With My Guitar)
TTITLE5=Don't Have It In Me
TTITLE6=Free Chicken and Beer
TTITLE7=Do It Right
TTITLE8=Blues With A Feeling
EXTD=
EXTT0=
EXTT1=
EXTT2=
EXTT3=
EXTT4=
EXTT5=
EXTT6=
EXTT7=
EXTT8=
PLAYORDER=
